<?xml version="1.0" standalone="no"?>
<!DOCTYPE svg PUBLIC "-//W3C//DTD SVG 20010904//EN"
 "http://www.w3.org/TR/2001/REC-SVG-20010904/DTD/svg10.dtd">
<svg version="1.0" xmlns="http://www.w3.org/2000/svg"
 width="512.000000pt" height="512.000000pt" viewBox="0 0 512.000000 512.000000"
 preserveAspectRatio="xMidYMid meet">

<g transform="translate(0.000000,512.000000) scale(0.100000,-0.100000)"
fill="white" stroke="none">
<path d="M361 4949 c-172 -34 -318 -182 -351 -358 -6 -35 -10 -508 -10 -1342
l0 -1289 2560 0 2560 0 0 1289 c0 834 -4 1307 -10 1342 -34 180 -179 325 -359
359 -67 12 -4325 12 -4390 -1z m1369 -609 c26 -13 47 -34 60 -60 20 -38 20
-57 20 -970 0 -913 0 -932 -20 -970 -13 -26 -34 -47 -60 -60 -38 -19 -58 -20
-520 -20 -462 0 -482 1 -520 20 -26 13 -47 34 -60 60 -20 38 -20 57 -20 970 0
913 0 932 20 970 12 24 35 47 58 59 35 19 59 20 520 21 465 0 484 -1 522 -20z
m600 0 c45 -23 80 -80 80 -130 0 -76 -74 -150 -150 -150 -50 0 -107 35 -130
80 -25 50 -25 90 0 140 37 73 124 99 200 60z m600 0 c45 -23 80 -80 80 -130 0
-17 -9 -49 -20 -70 -23 -45 -80 -80 -130 -80 -50 0 -107 35 -130 80 -25 50
-25 90 0 140 37 73 124 99 200 60z m600 0 c45 -23 80 -80 80 -130 0 -17 -9
-49 -20 -70 -23 -45 -80 -80 -130 -80 -50 0 -107 35 -130 80 -25 50 -25 90 0
140 37 73 124 99 200 60z m611 -290 c235 -45 399 -275 361 -506 -32 -196 -180
-344 -376 -376 -289 -48 -556 219 -508 508 42 252 277 420 523 374z m-1199
-618 c16 -10 125 -163 283 -400 l257 -384 91 90 c127 124 175 144 250 106 43
-22 322 -297 358 -353 18 -27 29 -58 29 -79 0 -74 -76 -152 -149 -152 -51 0
-89 26 -198 133 l-103 101 -102 -101 c-140 -137 -172 -151 -258 -117 -38 15
-59 43 -287 385 -136 203 -249 369 -253 369 -4 0 -116 -165 -251 -366 -259
-389 -272 -404 -349 -404 -106 0 -181 120 -133 213 38 73 626 944 646 957 50
31 117 32 169 2z"/>
<path d="M910 3910 l0 -150 300 0 300 0 0 150 0 150 -300 0 -300 0 0 -150z"/>
<path d="M910 3310 l0 -150 300 0 300 0 0 150 0 150 -300 0 -300 0 0 -150z"/>
<path d="M910 2710 l0 -150 300 0 300 0 0 150 0 150 -300 0 -300 0 0 -150z"/>
<path d="M3988 3739 c-43 -22 -78 -81 -78 -129 0 -50 35 -107 80 -130 21 -11
53 -20 70 -20 17 0 49 9 70 20 45 23 80 80 80 130 0 50 -35 107 -80 130 -49
25 -94 25 -142 -1z"/>
<path d="M0 1571 c0 -113 13 -180 50 -259 56 -120 183 -216 319 -242 74 -14
4308 -14 4382 0 180 34 325 179 359 359 5 30 10 94 10 142 l0 89 -2560 0
-2560 0 0 -89z"/>
<path d="M1603 613 l-50 -148 -269 -5 c-232 -4 -273 -7 -301 -23 -38 -20 -73
-82 -73 -127 0 -50 35 -107 80 -130 39 -20 56 -20 1570 -20 1514 0 1531 0
1570 20 45 23 80 80 80 130 0 45 -35 107 -73 127 -28 16 -69 19 -301 23 l-269
5 -50 148 -49 147 -908 0 -908 0 -49 -147z"/>
</g>
</svg>
