<?xml version="1.0" standalone="no"?>
<!DOCTYPE svg PUBLIC "-//W3C//DTD SVG 20010904//EN"
 "http://www.w3.org/TR/2001/REC-SVG-20010904/DTD/svg10.dtd">
<svg version="1.0" xmlns="http://www.w3.org/2000/svg"
 width="512.000000pt" height="512.000000pt" viewBox="0 0 512.000000 512.000000"
 preserveAspectRatio="xMidYMid meet">

<g transform="translate(0.000000,512.000000) scale(0.100000,-0.100000)"
fill="white" stroke="none">
<path d="M180 4365 c-57 -18 -124 -74 -153 -129 l-22 -41 -3 -1037 -2 -1038
1310 0 c1173 0 1310 2 1310 15 0 28 37 89 78 128 24 23 64 47 101 61 l62 22
36 88 35 88 -28 61 c-61 136 -31 240 105 370 108 103 127 112 231 112 73 0 92
-4 135 -27 l51 -26 69 29 c39 17 79 34 90 38 13 5 25 25 32 52 34 128 148 209
293 209 l40 0 0 403 c0 470 -1 479 -80 557 -86 87 74 80 -1899 79 -1465 0
-1753 -3 -1791 -14z m1979 -475 c10 -5 23 -22 30 -37 10 -24 -8 -112 -134
-663 -131 -575 -148 -637 -171 -657 -14 -13 -38 -23 -55 -23 -35 0 -79 39 -79
69 0 26 277 1238 292 1274 6 15 18 32 27 37 21 12 68 13 90 0z m-551 -256 c30
-34 28 -70 -5 -103 -16 -15 -148 -94 -296 -176 -147 -81 -266 -149 -265 -150
2 -1 122 -69 267 -150 321 -178 297 -164 310 -192 17 -37 13 -62 -14 -88 -45
-46 -62 -39 -428 166 -188 105 -352 200 -364 212 -31 28 -31 82 0 108 12 11
180 108 372 215 376 209 376 210 423 158z m1170 -166 c189 -105 352 -202 362
-216 26 -33 25 -65 -2 -96 -13 -13 -177 -110 -366 -215 -372 -207 -392 -215
-431 -165 -23 29 -27 64 -11 94 5 10 136 89 291 175 154 87 277 161 272 166
-5 5 -129 76 -277 159 -148 83 -275 158 -282 168 -40 52 18 142 81 125 11 -3
174 -91 363 -195z"/>
<path d="M3817 3150 c-17 -13 -34 -47 -52 -101 -30 -88 -39 -98 -130 -129 -32
-11 -85 -33 -118 -50 -33 -16 -73 -30 -88 -30 -15 0 -61 16 -103 36 -99 47
-113 44 -210 -55 -90 -93 -93 -108 -41 -211 19 -38 35 -79 35 -90 0 -11 -13
-46 -29 -78 -16 -31 -41 -92 -56 -135 -16 -44 -37 -84 -49 -93 -12 -8 -51 -24
-88 -35 -98 -29 -108 -45 -108 -179 0 -134 9 -149 111 -182 82 -26 111 -51
128 -110 7 -24 30 -81 52 -127 21 -46 39 -93 39 -103 0 -11 -16 -52 -35 -91
-52 -106 -47 -133 47 -223 90 -87 106 -90 208 -39 83 42 105 43 172 9 29 -15
82 -37 118 -51 36 -13 75 -29 87 -35 21 -10 54 -74 67 -132 4 -16 20 -41 36
-57 28 -28 31 -29 139 -29 133 0 148 9 181 112 12 37 29 77 38 88 9 11 58 36
107 54 50 18 109 43 132 55 56 28 72 27 153 -14 103 -52 118 -49 211 41 99 97
102 111 55 210 -20 42 -36 89 -36 105 0 16 13 55 29 87 15 31 39 86 51 122 13
36 30 73 38 82 8 9 50 29 93 43 110 37 119 51 119 177 0 144 -11 159 -160 203
-42 12 -68 45 -91 114 -12 36 -35 92 -50 123 -16 32 -29 71 -29 87 0 16 16 63
36 105 27 57 34 83 29 103 -9 37 -142 169 -179 179 -23 5 -45 -1 -103 -30 -40
-20 -87 -36 -103 -36 -17 0 -57 13 -89 29 -32 17 -87 39 -122 51 -71 24 -104
49 -113 86 -4 14 -16 49 -27 80 -28 73 -50 84 -177 84 -84 0 -103 -3 -125 -20z
m306 -674 c357 -134 448 -584 170 -850 -195 -187 -515 -179 -708 18 -276 282
-139 754 248 852 78 20 207 11 290 -20z"/>
<path d="M3816 2316 c-154 -65 -242 -238 -202 -397 71 -274 403 -356 591 -146
64 70 88 142 83 242 -5 98 -32 160 -98 225 -68 69 -128 94 -230 98 -72 2 -94
-1 -144 -22z"/>
<path d="M2 1758 c3 -175 5 -197 25 -233 28 -53 78 -99 133 -124 45 -20 59
-21 1387 -21 l1342 0 21 48 c19 40 20 51 10 77 -7 17 -22 56 -34 87 -19 53
-25 59 -65 73 -130 44 -211 142 -211 258 l0 27 -1306 0 -1306 0 4 -192z"/>
<path d="M1575 1198 c-3 -7 -27 -74 -54 -148 l-48 -135 -194 -5 c-107 -3 -202
-9 -212 -14 -40 -19 -50 -88 -18 -127 l19 -24 884 -3 c485 -1 893 0 905 3 33
8 63 45 63 76 0 15 -11 41 -24 56 l-24 28 -199 3 -198 3 -24 67 c-13 37 -36
104 -53 149 l-30 83 -394 0 c-307 0 -396 -3 -399 -12z"/>
</g>
</svg>
