<?xml version="1.0" standalone="no"?>
<!DOCTYPE svg PUBLIC "-//W3C//DTD SVG 20010904//EN"
 "http://www.w3.org/TR/2001/REC-SVG-20010904/DTD/svg10.dtd">
<svg version="1.0" xmlns="http://www.w3.org/2000/svg"
 width="512.000000pt" height="512.000000pt" viewBox="0 0 512.000000 512.000000"
 preserveAspectRatio="xMidYMid meet">

<g transform="translate(0.000000,512.000000) scale(0.100000,-0.100000)"
fill="white" stroke="none">
<path d="M2526 4989 l-26 -20 0 -218 c0 -241 5 -261 60 -261 55 0 60 20 60
260 0 118 -4 220 -8 226 -6 10 -45 34 -55 34 -2 0 -16 -9 -31 -21z"/>
<path d="M1330 4490 c-11 -11 -20 -28 -20 -37 0 -21 319 -343 340 -343 29 0
60 30 60 58 0 22 -32 59 -158 185 -165 165 -183 176 -222 137z"/>
<path d="M3567 4352 c-86 -87 -157 -165 -157 -173 0 -28 31 -59 58 -59 22 0
59 32 185 158 160 161 175 183 141 216 -38 39 -62 24 -227 -142z"/>
<path d="M2417 4080 c-476 -80 -814 -519 -766 -993 12 -118 33 -195 79 -294
53 -114 88 -161 220 -298 125 -131 176 -213 201 -327 l12 -58 397 0 396 0 12
56 c23 110 76 197 202 328 172 180 237 292 281 484 18 79 21 113 17 235 -6
155 -28 248 -90 372 -154 307 -485 508 -828 504 -47 -1 -107 -5 -133 -9z"/>
<path d="M1066 2070 c-155 -50 -270 -186 -299 -356 -23 -131 27 -280 127 -380
173 -172 451 -171 625 3 165 166 175 415 24 601 -105 129 -309 186 -477 132z"/>
<path d="M3777 2069 c-162 -55 -273 -188 -300 -358 -44 -287 215 -545 503
-501 178 28 322 158 366 330 45 176 -30 374 -180 476 -108 73 -268 95 -389 53z"/>
<path d="M2172 1903 c7 -127 35 -191 117 -274 86 -86 150 -113 271 -113 121 0
185 27 271 113 82 83 110 147 117 274 l4 87 -392 0 -392 0 4 -87z"/>
<path d="M1081 1079 c-162 -20 -326 -83 -465 -179 -86 -60 -214 -189 -269
-273 -86 -130 -160 -334 -168 -462 l-3 -50 1027 -3 1027 -2 0 35 c0 109 -68
315 -146 447 -57 95 -208 254 -299 315 -207 138 -467 202 -704 172z"/>
<path d="M3800 1080 c-412 -49 -759 -343 -875 -744 -14 -49 -28 -120 -31 -157
l-7 -69 1029 2 1028 3 -3 50 c-5 86 -49 236 -100 340 -158 322 -460 534 -816
575 -100 11 -130 11 -225 0z"/>
</g>
</svg>
